<svg xmlns="http://www.w3.org/2000/svg" xmlns:xlink="http://www.w3.org/1999/xlink" viewBox="0 0 188.13 116.41"><defs><style>.cls-1,.cls-55,.cls-56{stroke:#534741;}.cls-1,.cls-51,.cls-52,.cls-53,.cls-54,.cls-55,.cls-56{stroke-miterlimit:10;}.cls-1{stroke-width:0.07px;fill:url(#铅);}.cls-2,.cls-33,.cls-37,.cls-39,.cls-41,.cls-43,.cls-47,.cls-49,.cls-57{fill:none;stroke:#000;opacity:0.5;}.cls-2{stroke-width:0.49px;}.cls-3{fill:url(#新建渐变色板_1);}.cls-4{fill:url(#新建渐变色板_1-2);}.cls-5{fill:url(#新建渐变色板_1-3);}.cls-6{fill:url(#新建渐变色板_1-4);}.cls-7{fill:url(#新建渐变色板_1-5);}.cls-8{fill:url(#新建渐变色板_1-6);}.cls-9{fill:url(#新建渐变色板_1-7);}.cls-10{fill:url(#新建渐变色板_1-8);}.cls-11{fill:url(#新建渐变色板_1-9);}.cls-12{fill:url(#新建渐变色板_1-10);}.cls-13{fill:url(#新建渐变色板_1-11);}.cls-14{fill:url(#新建渐变色板_1-12);}.cls-15{fill:url(#新建渐变色板_1-13);}.cls-16{fill:url(#新建渐变色板_1-14);}.cls-17{fill:url(#新建渐变色板_1-15);}.cls-18{fill:url(#新建渐变色板_1-16);}.cls-19{fill:url(#新建渐变色板_1-17);}.cls-20{fill:url(#新建渐变色板_1-18);}.cls-21{fill:url(#新建渐变色板_1-19);}.cls-22{fill:url(#新建渐变色板_1-20);}.cls-23{fill:url(#新建渐变色板_1-21);}.cls-24{fill:url(#新建渐变色板_1-22);}.cls-25{fill:url(#新建渐变色板_1-23);}.cls-26{fill:url(#新建渐变色板_1-24);}.cls-27{fill:url(#新建渐变色板_1-25);}.cls-28{fill:url(#铸铁);}.cls-29{fill:url(#铸铁-2);}.cls-30{fill:url(#新建渐变色板_1-26);}.cls-31{fill:url(#新建渐变色板_1-27);}.cls-32{fill:url(#铸铁-3);}.cls-33{stroke-width:0.31px;}.cls-34{fill:url(#新建渐变色板_1-28);}.cls-35{fill:url(#新建渐变色板_1-29);}.cls-36{fill:url(#新建渐变色板_1-30);}.cls-37{stroke-width:0.34px;}.cls-38{fill:url(#新建渐变色板_1-31);}.cls-39{stroke-width:0.32px;}.cls-40{fill:url(#新建渐变色板_1-32);}.cls-41{stroke-width:0.48px;}.cls-42{fill:url(#锡径向);}.cls-43{stroke-width:0.35px;}.cls-44{fill:url(#锡径向-2);}.cls-45{fill:url(#锡径向-3);}.cls-46{fill:url(#锡径向-4);}.cls-47{stroke-width:0.3px;}.cls-48{fill:url(#锡径向-5);}.cls-49{stroke-width:0.53px;}.cls-50{fill:url(#新建渐变色板_1-33);}.cls-51{stroke-width:0.3px;fill:url(#铅-2);stroke:url(#铸铁-4);}.cls-52{stroke-width:0.23px;stroke:url(#铸铁-5);}.cls-53,.cls-60{fill:#3664bf;}.cls-53,.cls-54{stroke-width:0.24px;}.cls-53{stroke:url(#铸铁-6);}.cls-54{fill:#fff;stroke:url(#铸铁-7);}.cls-55,.cls-56{stroke-width:0.05px;}.cls-55{fill:url(#铅-4);}.cls-56{fill:url(#铅-5);}.cls-57{stroke-width:0.13px;}.cls-58{fill:url(#新建渐变色板_1-34);}.cls-59{opacity:0.2;}</style><linearGradient id="铅" x1="87.49" y1="80.63" x2="98.87" y2="80.63" gradientUnits="userSpaceOnUse"><stop offset="0.01" stop-color="#d1d1d2"/><stop offset="0.36" stop-color="#9fa0a0"/><stop offset="0.57" stop-color="#aeaeaf"/><stop offset="0.65" stop-color="#b5b5b6"/><stop offset="0.87" stop-color="#b7b8b8"/><stop offset="1" stop-color="#b5b5b6"/><stop offset="1" stop-color="#dcdddd"/></linearGradient><linearGradient id="新建渐变色板_1" x1="488.34" y1="37.29" x2="527.98" y2="37.29" gradientTransform="translate(70.83 -436.42) rotate(90)" gradientUnits="userSpaceOnUse"><stop offset="0.01" stop-color="#4c5b75"/><stop offset="0.03" stop-color="#616f86"/><stop offset="0.1" stop-color="#8e99aa"/><stop offset="0.16" stop-color="#b4bcc7"/><stop offset="0.23" stop-color="#d1d7de"/><stop offset="0.29" stop-color="#e5eaef"/><stop offset="0.36" stop-color="#f2f6f9"/><stop offset="0.42" stop-color="#f6fafc"/><stop offset="0.47" stop-color="#f2f6f8"/><stop offset="0.53" stop-color="#e6e9ec"/><stop offset="0.59" stop-color="#d3d5d7"/><stop offset="0.65" stop-color="#b7b8bb"/><stop offset="0.7" stop-color="#949396"/><stop offset="0.72" stop-color="#89878b"/><stop offset="1" stop-color="#f6fafc"/></linearGradient><linearGradient id="新建渐变色板_1-2" x1="498.28" y1="35.22" x2="518.02" y2="35.22" xlink:href="#新建渐变色板_1"/><linearGradient id="新建渐变色板_1-3" x1="493.64" y1="19.29" x2="522.66" y2="19.29" xlink:href="#新建渐变色板_1"/><linearGradient id="新建渐变色板_1-4" x1="493.64" y1="15.45" x2="522.66" y2="15.45" xlink:href="#新建渐变色板_1"/><linearGradient id="新建渐变色板_1-5" x1="494.2" y1="-20.56" x2="522.12" y2="-20.56" gradientTransform="matrix(0, 1, -2.38, 0, 13.28, -436.42)" xlink:href="#新建渐变色板_1"/><linearGradient id="新建渐变色板_1-6" x1="747.56" y1="50.43" x2="776.58" y2="50.43" gradientTransform="matrix(0, 0.07, -0.52, 0, 74.49, 7.33)" xlink:href="#新建渐变色板_1"/><linearGradient id="新建渐变色板_1-7" x1="1089.02" y1="50.43" x2="1118.03" y2="50.43" gradientTransform="matrix(0, 0.07, -0.52, 0, 74.49, 7.33)" xlink:href="#新建渐变色板_1"/><linearGradient id="新建渐变色板_1-8" x1="777.39" y1="12.71" x2="806.41" y2="12.71" gradientTransform="matrix(-0.21, 0, 0, -1.97, 229.45, 111.32)" xlink:href="#新建渐变色板_1"/><linearGradient id="新建渐变色板_1-9" x1="783.01" y1="-29.5" x2="812.03" y2="-29.5" gradientTransform="matrix(-0.29, 0, 0, -0.52, 293.82, 72.44)" xlink:href="#新建渐变色板_1"/><linearGradient id="新建渐变色板_1-10" x1="759.63" y1="-132.42" x2="788.64" y2="-132.42" gradientTransform="matrix(-0.05, 0, 0, -0.19, 102.44, 65.59)" xlink:href="#新建渐变色板_1"/><linearGradient id="新建渐变色板_1-11" x1="693.81" y1="-132.42" x2="722.83" y2="-132.42" gradientTransform="matrix(-0.05, 0, 0, -0.19, 102.44, 65.59)" xlink:href="#新建渐变色板_1"/><linearGradient id="新建渐变色板_1-12" x1="526.9" y1="10.61" x2="555.92" y2="10.61" gradientTransform="matrix(0, 0.07, -2.94, 0, 92.43, 7.69)" xlink:href="#新建渐变色板_1"/><linearGradient id="新建渐变色板_1-13" x1="256.7" y1="11.76" x2="285.72" y2="11.76" gradientTransform="matrix(0, 0.12, -0.89, 0, 69.44, 14.82)" xlink:href="#新建渐变色板_1"/><linearGradient id="新建渐变色板_1-14" x1="1225.02" y1="10.61" x2="1254.04" y2="10.61" gradientTransform="matrix(0, 0.07, -2.94, 0, 92.43, 7.69)" xlink:href="#新建渐变色板_1"/><linearGradient id="新建渐变色板_1-15" x1="684.77" y1="11.77" x2="713.79" y2="11.77" gradientTransform="matrix(0, 0.12, -0.89, 0, 69.44, 14.82)" xlink:href="#新建渐变色板_1"/><linearGradient id="新建渐变色板_1-16" x1="478.83" y1="-35.16" x2="537.49" y2="-35.16" xlink:href="#新建渐变色板_1"/><linearGradient id="新建渐变色板_1-17" x1="419.39" y1="7.55" x2="461.73" y2="7.55" gradientTransform="translate(-334.12 32.94)" xlink:href="#新建渐变色板_1"/><linearGradient id="新建渐变色板_1-18" x1="423.27" y1="3.37" x2="457.86" y2="3.37" gradientTransform="translate(-334.12 32.94)" xlink:href="#新建渐变色板_1"/><linearGradient id="新建渐变色板_1-19" x1="420.56" y1="4.77" x2="422.61" y2="4.77" gradientTransform="translate(-334.12 32.94)" xlink:href="#新建渐变色板_1"/><linearGradient id="新建渐变色板_1-20" x1="458.6" y1="4.77" x2="460.65" y2="4.77" gradientTransform="translate(-334.12 32.94)" xlink:href="#新建渐变色板_1"/><linearGradient id="新建渐变色板_1-21" x1="431.93" y1="4.77" x2="433.98" y2="4.77" gradientTransform="translate(-334.12 32.94)" xlink:href="#新建渐变色板_1"/><linearGradient id="新建渐变色板_1-22" x1="446.02" y1="4.77" x2="448.06" y2="4.77" gradientTransform="translate(-334.12 32.94)" xlink:href="#新建渐变色板_1"/><linearGradient id="新建渐变色板_1-23" x1="489.8" y1="-78.44" x2="526.5" y2="-78.44" xlink:href="#新建渐变色板_1"/><linearGradient id="新建渐变色板_1-24" x1="491.72" y1="-86.23" x2="524.59" y2="-86.23" xlink:href="#新建渐变色板_1"/><linearGradient id="新建渐变色板_1-25" x1="494.09" y1="-93.34" x2="524.29" y2="-93.34" gradientTransform="matrix(0, 0.92, -1, 0, 70.83, -398.98)" xlink:href="#新建渐变色板_1"/><linearGradient id="铸铁" x1="416.26" y1="71.9" x2="461.73" y2="71.9" gradientTransform="translate(-334.12 32.94)" gradientUnits="userSpaceOnUse"><stop offset="0.01" stop-color="#939498"/><stop offset="0.53" stop-color="#a7a6a6"/><stop offset="1" stop-color="#615f62"/></linearGradient><linearGradient id="铸铁-2" x1="416.26" y1="79.45" x2="461.73" y2="79.45" xlink:href="#铸铁"/><linearGradient id="新建渐变色板_1-26" x1="420.56" y1="75.16" x2="422.61" y2="75.16" gradientTransform="translate(-334.12 32.94)" xlink:href="#新建渐变色板_1"/><linearGradient id="新建渐变色板_1-27" x1="454.18" y1="75.16" x2="456.23" y2="75.16" gradientTransform="translate(-334.12 32.94)" xlink:href="#新建渐变色板_1"/><linearGradient id="铸铁-3" x1="430.5" y1="71.9" x2="449.06" y2="71.9" xlink:href="#铸铁"/><linearGradient id="新建渐变色板_1-28" x1="496.02" y1="-102.32" x2="522.34" y2="-102.32" gradientTransform="matrix(0, 0.92, -1.76, 0, -9.75, -398.98)" xlink:href="#新建渐变色板_1"/><linearGradient id="新建渐变色板_1-29" x1="800.09" y1="-181.36" x2="829.11" y2="-181.36" gradientTransform="matrix(0, 0.07, -0.52, 0, 74.49, 7.33)" xlink:href="#新建渐变色板_1"/><linearGradient id="新建渐变色板_1-30" x1="1037.25" y1="-181.37" x2="1066.27" y2="-181.37" gradientTransform="matrix(0, 0.07, -0.52, 0, 74.49, 7.33)" xlink:href="#新建渐变色板_1"/><linearGradient id="新建渐变色板_1-31" x1="521.3" y1="-106.26" x2="544.52" y2="-106.26" gradientTransform="matrix(0, 0.57, -1, 0, 70.83, -232.54)" xlink:href="#新建渐变色板_1"/><linearGradient id="新建渐变色板_1-32" x1="522.75" y1="-113.59" x2="543.05" y2="-113.59" gradientTransform="matrix(0, 0.57, -1, 0, 70.83, -232.54)" xlink:href="#新建渐变色板_1"/><radialGradient id="锡径向" cx="107.01" cy="18.56" r="30.1" gradientUnits="userSpaceOnUse"><stop offset="0.01" stop-color="#d1d1d2"/><stop offset="0.3" stop-color="#c9caca"/><stop offset="0.66" stop-color="#b5b5b6"/><stop offset="1" stop-color="#a8a9a9"/></radialGradient><radialGradient id="锡径向-2" cx="147.23" cy="20.45" r="16.57" gradientTransform="translate(29.95 -70.88) rotate(30)" xlink:href="#锡径向"/><radialGradient id="锡径向-3" cx="68.4" cy="21.75" r="16.57" gradientTransform="translate(53.03 -48.36) rotate(60)" xlink:href="#锡径向"/><radialGradient id="锡径向-4" cx="107.01" cy="32.1" r="16.13" xlink:href="#锡径向"/><radialGradient id="锡径向-5" cx="106.98" cy="16.6" r="11.71" xlink:href="#锡径向"/><linearGradient id="新建渐变色板_1-33" x1="520.25" y1="-69.41" x2="543.47" y2="-69.41" gradientTransform="matrix(0, 0.59, -1.92, 0, 3.24, -241.6)" xlink:href="#新建渐变色板_1"/><linearGradient id="铅-2" x1="82.61" y1="71.74" x2="131.41" y2="71.74" xlink:href="#铅"/><linearGradient id="铸铁-4" x1="82.46" y1="71.74" x2="131.56" y2="71.74" gradientTransform="matrix(1, 0, 0, 1, 0, 0)" xlink:href="#铸铁"/><linearGradient id="铸铁-5" x1="93.54" y1="63.9" x2="120.71" y2="63.9" gradientTransform="matrix(1, 0, 0, 1, 0, 0)" xlink:href="#铸铁"/><linearGradient id="铸铁-6" x1="98.75" y1="63.05" x2="115.07" y2="63.05" gradientTransform="matrix(1, 0, 0, 1, 0, 0)" xlink:href="#铸铁"/><linearGradient id="铸铁-7" x1="101.08" y1="71.74" x2="112.94" y2="71.74" gradientTransform="matrix(1, 0, 0, 1, 0, 0)" xlink:href="#铸铁"/><linearGradient id="铅-4" x1="112.03" y1="86.16" x2="119.89" y2="86.16" xlink:href="#铅"/><linearGradient id="铅-5" x1="119.81" y1="79.95" x2="127.67" y2="79.95" xlink:href="#铅"/><linearGradient id="新建渐变色板_1-34" x1="477.98" y1="0.87" x2="538.62" y2="0.87" xlink:href="#新建渐变色板_1"/></defs><title>资源 8</title><g id="图层_2" data-name="图层 2"><g id="图层_1-2" data-name="图层 1"><circle class="cls-1" cx="93.18" cy="80.63" r="5.69"/><path class="cls-2" d="M.25,83.06V60.43a8.5,8.5,0,0,1,8.5-8.51H66.83V91.56H8.75A8.5,8.5,0,0,1,.25,83.06Z"/><path class="cls-3" d="M.25,83.06V60.43a8.5,8.5,0,0,1,8.5-8.51H66.83V91.56H8.75A8.5,8.5,0,0,1,.25,83.06Z"/><path class="cls-2" d="M21.59,75.93V67.54a5.68,5.68,0,0,1,5.68-5.67H49.62V81.61H27.27A5.68,5.68,0,0,1,21.59,75.93Z"/><path class="cls-4" d="M21.59,75.93V67.54a5.68,5.68,0,0,1,5.68-5.67H49.62V81.61H27.27A5.68,5.68,0,0,1,21.59,75.93Z"/><rect class="cls-2" x="49.61" y="57.23" width="3.84" height="29.02"/><rect class="cls-5" x="49.61" y="57.23" width="3.84" height="29.02"/><rect class="cls-2" x="53.46" y="57.23" width="3.84" height="29.02"/><rect class="cls-6" x="53.46" y="57.23" width="3.84" height="29.02"/><rect class="cls-2" x="57.67" y="57.78" width="9.16" height="27.92"/><rect class="cls-7" x="57.67" y="57.78" width="9.16" height="27.92"/><rect class="cls-2" x="47.2" y="58.95" width="2" height="2"/><rect class="cls-8" x="47.2" y="58.95" width="2" height="2"/><rect class="cls-2" x="47.2" y="82.52" width="2" height="2"/><rect class="cls-9" x="47.2" y="82.52" width="2" height="2"/><path class="cls-2" d="M62.25,82.45h0a3.07,3.07,0,0,1,3.07,3.07V90H59.19V85.52A3.06,3.06,0,0,1,62.25,82.45Z"/><path class="cls-10" d="M62.25,82.45h0a3.07,3.07,0,0,1,3.07,3.07V90H59.19V85.52A3.06,3.06,0,0,1,62.25,82.45Z"/><rect class="cls-2" x="58.04" y="86.91" width="8.43" height="2.02"/><rect class="cls-11" x="58.04" y="86.91" width="8.43" height="2.02"/><rect class="cls-2" x="59.69" y="90.29" width="1.57" height="0.73"/><rect class="cls-12" x="59.69" y="90.29" width="1.57" height="0.73"/><rect class="cls-2" x="63.26" y="90.29" width="1.57" height="0.73"/><rect class="cls-13" x="63.26" y="90.29" width="1.57" height="0.73"/><rect class="cls-2" x="55.59" y="45.59" width="11.29" height="2.09"/><rect class="cls-14" x="55.59" y="45.59" width="11.29" height="2.09"/><rect class="cls-2" x="57.34" y="44.93" width="3.4" height="3.4"/><rect class="cls-15" x="57.34" y="44.93" width="3.4" height="3.4"/><rect class="cls-2" x="55.57" y="95.8" width="11.29" height="2.09"/><rect class="cls-16" x="55.57" y="95.8" width="11.29" height="2.09"/><rect class="cls-2" x="57.32" y="95.15" width="3.4" height="3.4"/><rect class="cls-17" x="57.32" y="95.15" width="3.4" height="3.4"/><rect class="cls-2" x="67.2" y="42.41" width="77.57" height="58.66"/><rect class="cls-18" x="67.2" y="42.41" width="77.57" height="58.66"/><rect class="cls-2" x="85.28" y="38.57" width="42.34" height="3.84"/><rect class="cls-19" x="85.28" y="38.57" width="42.34" height="3.84"/><rect class="cls-2" x="89.15" y="34.39" width="34.59" height="3.84"/><rect class="cls-20" x="89.15" y="34.39" width="34.59" height="3.84"/><rect class="cls-2" x="86.44" y="37.2" width="2.05" height="1.04"/><rect class="cls-21" x="86.44" y="37.2" width="2.05" height="1.04"/><rect class="cls-2" x="124.49" y="37.2" width="2.05" height="1.04"/><rect class="cls-22" x="124.49" y="37.2" width="2.05" height="1.04"/><rect class="cls-2" x="97.82" y="37.2" width="2.05" height="1.04"/><rect class="cls-23" x="97.82" y="37.2" width="2.05" height="1.04"/><rect class="cls-2" x="111.9" y="37.2" width="2.05" height="1.04"/><rect class="cls-24" x="111.9" y="37.2" width="2.05" height="1.04"/><rect class="cls-2" x="145.14" y="53.38" width="8.24" height="36.7"/><rect class="cls-25" x="145.14" y="53.38" width="8.24" height="36.7"/><rect class="cls-2" x="153.5" y="55.31" width="7.11" height="32.87"/><rect class="cls-26" x="153.5" y="55.31" width="7.11" height="32.87"/><rect class="cls-2" x="160.61" y="57.78" width="7.11" height="27.92"/><rect class="cls-27" x="160.61" y="57.78" width="7.11" height="27.92"/><rect class="cls-2" x="82.15" y="101.07" width="45.47" height="7.55"/><rect class="cls-28" x="82.15" y="101.07" width="45.47" height="7.55"/><rect class="cls-2" x="82.15" y="108.62" width="45.47" height="7.55"/><rect class="cls-29" x="82.15" y="108.62" width="45.47" height="7.55"/><rect class="cls-2" x="86.44" y="107.58" width="2.05" height="1.04"/><rect class="cls-30" x="86.44" y="107.58" width="2.05" height="1.04"/><rect class="cls-2" x="120.07" y="107.58" width="2.05" height="1.04"/><rect class="cls-31" x="120.07" y="107.58" width="2.05" height="1.04"/><rect class="cls-2" x="96.38" y="101.07" width="18.57" height="7.55"/><rect class="cls-32" x="96.38" y="101.07" width="18.57" height="7.55"/><path class="cls-33" d="M168,83.9V59.57h0l5.51,5.51V78.39L168,83.9Z"/><path class="cls-34" d="M168,83.9V59.57h0l5.51,5.51V78.39L168,83.9Z"/><rect class="cls-2" x="168.02" y="62.57" width="2" height="2"/><rect class="cls-35" x="168.02" y="62.57" width="2" height="2"/><rect class="cls-2" x="168.02" y="78.95" width="2" height="2"/><rect class="cls-36" x="168.02" y="78.95" width="2" height="2"/><rect class="cls-37" x="173.53" y="64.95" width="7.11" height="13.25"/><rect class="cls-38" x="173.53" y="64.95" width="7.11" height="13.25"/><path class="cls-39" d="M180.86,77.37V65.78h4.28A2.84,2.84,0,0,1,188,68.62v5.91a2.84,2.84,0,0,1-2.84,2.84Z"/><path class="cls-40" d="M180.86,77.37V65.78h4.28A2.84,2.84,0,0,1,188,68.62v5.91a2.84,2.84,0,0,1-2.84,2.84Z"/><rect class="cls-41" x="64.49" y="16.67" width="85.04" height="3.77" rx="1.89" ry="1.89"/><rect class="cls-42" x="64.49" y="16.67" width="85.04" height="3.77" rx="1.89" ry="1.89"/><rect class="cls-43" x="124.49" y="18.56" width="45.47" height="3.77" rx="1.89" ry="1.89" transform="translate(9.5 76.35) rotate(-30)"/><rect class="cls-44" x="124.49" y="18.56" width="45.47" height="3.77" rx="1.89" ry="1.89" transform="translate(9.5 76.35) rotate(-30)"/><rect class="cls-43" x="66.51" y="-0.99" width="3.77" height="45.47" rx="1.89" ry="1.89" transform="translate(15.37 70.11) rotate(-60)"/><rect class="cls-45" x="66.51" y="-0.99" width="3.77" height="45.47" rx="1.89" ry="1.89" transform="translate(15.37 70.11) rotate(-60)"/><rect class="cls-43" x="84.28" y="30.21" width="45.47" height="3.77" rx="1.89" ry="1.89"/><rect class="cls-46" x="84.28" y="30.21" width="45.47" height="3.77" rx="1.89" ry="1.89"/><rect class="cls-47" x="105.1" y="0.15" width="3.77" height="32.91" rx="1.61" ry="1.61"/><rect class="cls-48" x="105.1" y="0.15" width="3.77" height="32.91" rx="1.61" ry="1.61"/><rect class="cls-49" x="128.3" y="64.83" width="16.79" height="13.68"/><rect class="cls-50" x="128.3" y="64.83" width="16.79" height="13.68"/><circle class="cls-51" cx="107.01" cy="71.74" r="24.4"/><circle class="cls-52" cx="107.12" cy="63.9" r="13.47"/><rect class="cls-53" x="98.87" y="57.23" width="16.08" height="11.64"/><rect class="cls-54" x="101.2" y="70.89" width="11.62" height="1.7"/><circle class="cls-1" cx="93.18" cy="80.63" r="5.69"/><circle class="cls-55" cx="115.96" cy="86.16" r="3.93"/><circle class="cls-56" cx="123.74" cy="79.95" r="3.93"/><rect class="cls-57" x="67.25" y="41.56" width="5.41" height="60.64"/><rect class="cls-58" x="67.25" y="41.56" width="5.41" height="60.64"/><g class="cls-59"><circle class="cls-60" cx="93.18" cy="80.63" r="5.69"/><path class="cls-60" d="M.25,83.06V60.43a8.5,8.5,0,0,1,8.5-8.51H66.83V91.56H8.75A8.5,8.5,0,0,1,.25,83.06Z"/><path class="cls-60" d="M.25,83.06V60.43a8.5,8.5,0,0,1,8.5-8.51H66.83V91.56H8.75A8.5,8.5,0,0,1,.25,83.06Z"/><path class="cls-60" d="M21.59,75.93V67.54a5.68,5.68,0,0,1,5.68-5.67H49.62V81.61H27.27A5.68,5.68,0,0,1,21.59,75.93Z"/><path class="cls-60" d="M21.59,75.93V67.54a5.68,5.68,0,0,1,5.68-5.67H49.62V81.61H27.27A5.68,5.68,0,0,1,21.59,75.93Z"/><rect class="cls-60" x="49.61" y="57.23" width="3.84" height="29.02"/><rect class="cls-60" x="49.61" y="57.23" width="3.84" height="29.02"/><rect class="cls-60" x="53.46" y="57.23" width="3.84" height="29.02"/><rect class="cls-60" x="53.46" y="57.23" width="3.84" height="29.02"/><rect class="cls-60" x="57.67" y="57.78" width="9.16" height="27.92"/><rect class="cls-60" x="57.67" y="57.78" width="9.16" height="27.92"/><rect class="cls-60" x="47.2" y="58.95" width="2" height="2"/><rect class="cls-60" x="47.2" y="58.95" width="2" height="2"/><rect class="cls-60" x="47.2" y="82.52" width="2" height="2"/><rect class="cls-60" x="47.2" y="82.52" width="2" height="2"/><path class="cls-60" d="M62.25,82.45h0a3.07,3.07,0,0,1,3.07,3.07V90H59.19V85.52A3.06,3.06,0,0,1,62.25,82.45Z"/><path class="cls-60" d="M62.25,82.45h0a3.07,3.07,0,0,1,3.07,3.07V90H59.19V85.52A3.06,3.06,0,0,1,62.25,82.45Z"/><rect class="cls-60" x="58.04" y="86.91" width="8.43" height="2.02"/><rect class="cls-60" x="58.04" y="86.91" width="8.43" height="2.02"/><rect class="cls-60" x="59.69" y="90.29" width="1.57" height="0.73"/><rect class="cls-60" x="59.69" y="90.29" width="1.57" height="0.73"/><rect class="cls-60" x="63.26" y="90.29" width="1.57" height="0.73"/><rect class="cls-60" x="63.26" y="90.29" width="1.57" height="0.73"/><rect class="cls-60" x="55.59" y="45.59" width="11.29" height="2.09"/><rect class="cls-60" x="55.59" y="45.59" width="11.29" height="2.09"/><rect class="cls-60" x="57.34" y="44.93" width="3.4" height="3.4"/><rect class="cls-60" x="57.34" y="44.93" width="3.4" height="3.4"/><rect class="cls-60" x="55.57" y="95.8" width="11.29" height="2.09"/><rect class="cls-60" x="55.57" y="95.8" width="11.29" height="2.09"/><rect class="cls-60" x="57.32" y="95.15" width="3.4" height="3.4"/><rect class="cls-60" x="57.32" y="95.15" width="3.4" height="3.4"/><rect class="cls-60" x="67.2" y="42.41" width="77.57" height="58.66"/><rect class="cls-60" x="67.2" y="42.41" width="77.57" height="58.66"/><rect class="cls-60" x="85.28" y="38.57" width="42.34" height="3.84"/><rect class="cls-60" x="85.28" y="38.57" width="42.34" height="3.84"/><rect class="cls-60" x="89.15" y="34.39" width="34.59" height="3.84"/><rect class="cls-60" x="89.15" y="34.39" width="34.59" height="3.84"/><rect class="cls-60" x="86.44" y="37.2" width="2.05" height="1.04"/><rect class="cls-60" x="86.44" y="37.2" width="2.05" height="1.04"/><rect class="cls-60" x="124.49" y="37.2" width="2.05" height="1.04"/><rect class="cls-60" x="124.49" y="37.2" width="2.05" height="1.04"/><rect class="cls-60" x="97.82" y="37.2" width="2.05" height="1.04"/><rect class="cls-60" x="97.82" y="37.2" width="2.05" height="1.04"/><rect class="cls-60" x="111.9" y="37.2" width="2.05" height="1.04"/><rect class="cls-60" x="111.9" y="37.2" width="2.05" height="1.04"/><rect class="cls-60" x="145.14" y="53.38" width="8.24" height="36.7"/><rect class="cls-60" x="145.14" y="53.38" width="8.24" height="36.7"/><rect class="cls-60" x="153.5" y="55.31" width="7.11" height="32.87"/><rect class="cls-60" x="153.5" y="55.31" width="7.11" height="32.87"/><rect class="cls-60" x="160.61" y="57.78" width="7.11" height="27.92"/><rect class="cls-60" x="160.61" y="57.78" width="7.11" height="27.92"/><rect class="cls-60" x="82.15" y="101.07" width="45.47" height="7.55"/><rect class="cls-60" x="82.15" y="101.07" width="45.47" height="7.55"/><rect class="cls-60" x="82.15" y="108.62" width="45.47" height="7.55"/><rect class="cls-60" x="82.15" y="108.62" width="45.47" height="7.55"/><rect class="cls-60" x="86.44" y="107.58" width="2.05" height="1.04"/><rect class="cls-60" x="86.44" y="107.58" width="2.05" height="1.04"/><rect class="cls-60" x="120.07" y="107.58" width="2.05" height="1.04"/><rect class="cls-60" x="120.07" y="107.58" width="2.05" height="1.04"/><rect class="cls-60" x="96.38" y="101.07" width="18.57" height="7.55"/><rect class="cls-60" x="96.38" y="101.07" width="18.57" height="7.55"/><path class="cls-60" d="M168,83.9V59.57h0l5.51,5.51V78.39L168,83.9Z"/><path class="cls-60" d="M168,83.9V59.57h0l5.51,5.51V78.39L168,83.9Z"/><rect class="cls-60" x="168.02" y="62.57" width="2" height="2"/><rect class="cls-60" x="168.02" y="62.57" width="2" height="2"/><rect class="cls-60" x="168.02" y="78.95" width="2" height="2"/><rect class="cls-60" x="168.02" y="78.95" width="2" height="2"/><rect class="cls-60" x="173.53" y="64.95" width="7.11" height="13.25"/><rect class="cls-60" x="173.53" y="64.95" width="7.11" height="13.25"/><path class="cls-60" d="M180.86,77.37V65.78h4.28A2.84,2.84,0,0,1,188,68.62v5.91a2.84,2.84,0,0,1-2.84,2.84Z"/><path class="cls-60" d="M180.86,77.37V65.78h4.28A2.84,2.84,0,0,1,188,68.62v5.91a2.84,2.84,0,0,1-2.84,2.84Z"/><rect class="cls-60" x="64.49" y="16.67" width="85.04" height="3.77" rx="1.89" ry="1.89"/><rect class="cls-60" x="64.49" y="16.67" width="85.04" height="3.77" rx="1.89" ry="1.89"/><rect class="cls-60" x="124.49" y="18.56" width="45.47" height="3.77" rx="1.89" ry="1.89" transform="translate(9.5 76.35) rotate(-30)"/><rect class="cls-60" x="124.49" y="18.56" width="45.47" height="3.77" rx="1.89" ry="1.89" transform="translate(9.5 76.35) rotate(-30)"/><rect class="cls-60" x="66.51" y="-0.99" width="3.77" height="45.47" rx="1.89" ry="1.89" transform="translate(15.37 70.11) rotate(-60)"/><rect class="cls-60" x="66.51" y="-0.99" width="3.77" height="45.47" rx="1.89" ry="1.89" transform="translate(15.37 70.11) rotate(-60)"/><rect class="cls-60" x="84.28" y="30.21" width="45.47" height="3.77" rx="1.89" ry="1.89"/><rect class="cls-60" x="84.28" y="30.21" width="45.47" height="3.77" rx="1.89" ry="1.89"/><rect class="cls-60" x="105.1" y="0.15" width="3.77" height="32.91" rx="1.61" ry="1.61"/><rect class="cls-60" x="105.1" y="0.15" width="3.77" height="32.91" rx="1.61" ry="1.61"/><rect class="cls-60" x="128.3" y="64.83" width="16.79" height="13.68"/><rect class="cls-60" x="128.3" y="64.83" width="16.79" height="13.68"/><circle class="cls-60" cx="107.01" cy="71.74" r="24.4"/><circle class="cls-60" cx="107.12" cy="63.9" r="13.47"/><rect class="cls-60" x="98.87" y="57.23" width="16.08" height="11.64"/><rect class="cls-60" x="101.2" y="70.89" width="11.62" height="1.7"/><circle class="cls-60" cx="93.18" cy="80.63" r="5.69"/><circle class="cls-60" cx="115.96" cy="86.16" r="3.93"/><circle class="cls-60" cx="123.74" cy="79.95" r="3.93"/><rect class="cls-60" x="67.25" y="41.56" width="5.41" height="60.64"/><rect class="cls-60" x="67.25" y="41.56" width="5.41" height="60.64"/></g></g></g></svg>