<svg xmlns="http://www.w3.org/2000/svg" xmlns:xlink="http://www.w3.org/1999/xlink" viewBox="0 0 70.13 64.69"><defs><style>.cls-1{fill:url(#未命名的渐变_10);}.cls-10,.cls-12,.cls-2,.cls-4,.cls-7{fill:none;stroke:#000;opacity:0.5;}.cls-2{stroke-width:0.31px;}.cls-3{fill:url(#未命名的渐变_10-2);}.cls-4{stroke-width:0.3px;}.cls-5{fill:url(#未命名的渐变_10-3);}.cls-6{fill:url(#未命名的渐变_10-4);}.cls-7{stroke-width:0.43px;}.cls-8{fill:url(#未命名的渐变_10-5);}.cls-9{fill:url(#未命名的渐变_10-6);}.cls-10{stroke-width:0.26px;}.cls-11{fill:url(#未命名的渐变_10-7);}.cls-12{stroke-width:0.28px;}.cls-13{fill:url(#未命名的渐变_10-8);}.cls-14{fill:url(#未命名的渐变_10-9);}.cls-15{fill:url(#未命名的渐变_10-10);}.cls-16{opacity:0.2;}.cls-17{fill:#3664bf;}</style><linearGradient id="未命名的渐变_10" x1="42.31" y1="42.33" x2="42.31" y2="60.97" gradientUnits="userSpaceOnUse"><stop offset="0.01" stop-color="#4c5b75"/><stop offset="0.03" stop-color="#616f86"/><stop offset="0.1" stop-color="#8e99aa"/><stop offset="0.16" stop-color="#b4bcc7"/><stop offset="0.23" stop-color="#d1d7de"/><stop offset="0.29" stop-color="#e5eaef"/><stop offset="0.36" stop-color="#f2f6f9"/><stop offset="0.42" stop-color="#f6fafc"/><stop offset="0.47" stop-color="#f2f6f8"/><stop offset="0.53" stop-color="#e6e9ec"/><stop offset="0.59" stop-color="#d3d5d7"/><stop offset="0.65" stop-color="#b7b8bb"/><stop offset="0.7" stop-color="#949396"/><stop offset="0.72" stop-color="#89878b"/><stop offset="1" stop-color="#f6fafc"/></linearGradient><linearGradient id="未命名的渐变_10-2" x1="19" y1="38.84" x2="19" y2="64.78" xlink:href="#未命名的渐变_10"/><linearGradient id="未命名的渐变_10-3" x1="65.73" y1="38.84" x2="65.73" y2="64.78" xlink:href="#未命名的渐变_10"/><linearGradient id="未命名的渐变_10-4" x1="101.76" y1="-30.21" x2="115.94" y2="-30.21" gradientTransform="matrix(0.74, -0.74, 0.86, 0.86, -8.69, 152.35)" xlink:href="#未命名的渐变_10"/><linearGradient id="未命名的渐变_10-5" x1="87.21" y1="-108.48" x2="91.47" y2="-108.48" gradientTransform="translate(-76.49 121.33)" xlink:href="#未命名的渐变_10"/><linearGradient id="未命名的渐变_10-6" x1="72.33" y1="-108.48" x2="106.35" y2="-108.48" gradientTransform="translate(-76.49 121.33)" xlink:href="#未命名的渐变_10"/><linearGradient id="未命名的渐变_10-7" x1="83.67" y1="-99.89" x2="95.01" y2="-99.89" gradientTransform="translate(-70.42 118.82)" xlink:href="#未命名的渐变_10"/><linearGradient id="未命名的渐变_10-8" x1="83.67" y1="-85.81" x2="95.01" y2="-85.81" gradientTransform="translate(-60.46 114.69)" xlink:href="#未命名的渐变_10"/><linearGradient id="未命名的渐变_10-9" x1="85.09" y1="-92.81" x2="93.59" y2="-92.81" gradientTransform="translate(-65.41 116.74)" xlink:href="#未命名的渐变_10"/><linearGradient id="未命名的渐变_10-10" x1="79.83" y1="-81.15" x2="99.67" y2="-81.15" gradientTransform="translate(-57.29 113.04)" xlink:href="#未命名的渐变_10"/></defs><title>资源 2</title><g id="图层_2" data-name="图层 2"><g id="图层_1-2" data-name="图层 1"><rect class="cls-1" x="23.25" y="42.46" width="38.11" height="18.33"/><rect class="cls-2" x="23.25" y="42.46" width="38.11" height="18.33"/><rect class="cls-3" x="14.75" y="39.03" width="8.5" height="25.51"/><rect class="cls-4" x="14.75" y="39.03" width="8.5" height="25.51"/><rect class="cls-5" x="61.47" y="39.03" width="8.5" height="25.51"/><rect class="cls-4" x="61.47" y="39.03" width="8.5" height="25.51"/><path class="cls-6" d="M60.35,55l-1.11,1.12C55.66,59.66,44.35,54.15,34,43.77l-5.14-5.13L39.38,28.11,54.76,43.49C59.47,48.2,62,53.35,60.35,55Z"/><path class="cls-7" d="M60.35,55l-1.11,1.12C55.66,59.66,44.35,54.15,34,43.77l-5.14-5.13L39.38,28.11,54.76,43.49C59.47,48.2,62,53.35,60.35,55Z"/><rect class="cls-8" x="10.72" y="7.18" width="4.25" height="11.34" transform="translate(-5.32 12.85) rotate(-45)"/><rect class="cls-4" x="10.72" y="7.18" width="4.25" height="11.34" transform="translate(-5.32 12.85) rotate(-45)"/><rect class="cls-9" x="-4.15" y="11.44" width="34.02" height="2.83" rx="0.74" ry="0.74" transform="translate(-5.32 12.85) rotate(-45)"/><rect class="cls-10" x="-4.15" y="11.44" width="34.02" height="2.83" rx="0.74" ry="0.74" transform="translate(-5.32 12.85) rotate(-45)"/><rect class="cls-11" x="13.25" y="16.09" width="11.34" height="5.67" transform="translate(-7.84 18.92) rotate(-45)"/><rect class="cls-12" x="13.25" y="16.09" width="11.34" height="5.67" transform="translate(-7.84 18.92) rotate(-45)"/><rect class="cls-13" x="23.21" y="26.05" width="11.34" height="5.67" transform="translate(-11.96 28.88) rotate(-45)"/><rect class="cls-12" x="23.21" y="26.05" width="11.34" height="5.67" transform="translate(-11.96 28.88) rotate(-45)"/><rect class="cls-14" x="19.68" y="19.68" width="8.5" height="8.5" transform="translate(-9.91 23.93) rotate(-45)"/><rect class="cls-4" x="19.68" y="19.68" width="8.5" height="8.5" transform="translate(-9.91 23.93) rotate(-45)"/><rect class="cls-15" x="22.54" y="29.76" width="19.84" height="4.25" rx="0.85" ry="0.85" transform="translate(-13.04 32.29) rotate(-45)"/><rect class="cls-4" x="22.54" y="29.76" width="19.84" height="4.25" rx="0.85" ry="0.85" transform="translate(-13.04 32.29) rotate(-45)"/><g class="cls-16"><rect class="cls-17" x="23.25" y="42.46" width="38.11" height="18.33"/><rect class="cls-17" x="23.25" y="42.46" width="38.11" height="18.33"/><rect class="cls-17" x="14.75" y="39.03" width="8.5" height="25.51"/><rect class="cls-17" x="14.75" y="39.03" width="8.5" height="25.51"/><rect class="cls-17" x="61.47" y="39.03" width="8.5" height="25.51"/><rect class="cls-17" x="61.47" y="39.03" width="8.5" height="25.51"/><path class="cls-17" d="M60.35,55l-1.11,1.12C55.66,59.66,44.35,54.15,34,43.77l-5.14-5.13L39.38,28.11,54.76,43.49C59.47,48.2,62,53.35,60.35,55Z"/><path class="cls-17" d="M60.35,55l-1.11,1.12C55.66,59.66,44.35,54.15,34,43.77l-5.14-5.13L39.38,28.11,54.76,43.49C59.47,48.2,62,53.35,60.35,55Z"/><rect class="cls-17" x="10.72" y="7.18" width="4.25" height="11.34" transform="translate(-5.32 12.85) rotate(-45)"/><rect class="cls-17" x="10.72" y="7.18" width="4.25" height="11.34" transform="translate(-5.32 12.85) rotate(-45)"/><rect class="cls-17" x="-4.15" y="11.44" width="34.02" height="2.83" rx="0.74" ry="0.74" transform="translate(-5.32 12.85) rotate(-45)"/><rect class="cls-17" x="-4.15" y="11.44" width="34.02" height="2.83" rx="0.74" ry="0.74" transform="translate(-5.32 12.85) rotate(-45)"/><rect class="cls-17" x="13.25" y="16.09" width="11.34" height="5.67" transform="translate(-7.84 18.92) rotate(-45)"/><rect class="cls-17" x="13.25" y="16.09" width="11.34" height="5.67" transform="translate(-7.84 18.92) rotate(-45)"/><rect class="cls-17" x="23.21" y="26.05" width="11.34" height="5.67" transform="translate(-11.96 28.88) rotate(-45)"/><rect class="cls-17" x="23.21" y="26.05" width="11.34" height="5.67" transform="translate(-11.96 28.88) rotate(-45)"/><rect class="cls-17" x="19.68" y="19.68" width="8.5" height="8.5" transform="translate(-9.91 23.93) rotate(-45)"/><rect class="cls-17" x="19.68" y="19.68" width="8.5" height="8.5" transform="translate(-9.91 23.93) rotate(-45)"/><rect class="cls-17" x="22.54" y="29.76" width="19.84" height="4.25" rx="0.85" ry="0.85" transform="translate(-13.04 32.29) rotate(-45)"/><rect class="cls-17" x="22.54" y="29.76" width="19.84" height="4.25" rx="0.85" ry="0.85" transform="translate(-13.04 32.29) rotate(-45)"/></g></g></g></svg>