<?xml version="1.0" standalone="no"?><!DOCTYPE svg PUBLIC "-//W3C//DTD SVG 1.1//EN" "http://www.w3.org/Graphics/SVG/1.1/DTD/svg11.dtd"><svg t="1535784102552" class="icon" style="" viewBox="0 0 1024 1024" version="1.1" xmlns="http://www.w3.org/2000/svg" p-id="6266" xmlns:xlink="http://www.w3.org/1999/xlink" width="200" height="200"><defs><style type="text/css"></style></defs><path d="M512 512m-506.88 0a506.88 506.88 0 1 0 1013.76 0 506.88 506.88 0 1 0-1013.76 0Z" fill="#FFFFFF" p-id="6267"></path><path d="M512 512m-471.04 0a471.04 471.04 0 1 0 942.08 0 471.04 471.04 0 1 0-942.08 0Z" fill="#059b4f" p-id="6268"></path><path d="M301.22496 630.272V539.54048l-68.91008-13.34784v290.87232l68.91008-24.00768v-101.4784h111.31392L473.52832 608.91136l-79.51872-42.65984-21.18656 64.02048h-71.59808zM899.19488 539.4688L392.32512 206.93504H333.6192l-80.02048 126.04416v42.89024l445.47072 270.91456h37.38112v-2.67776l162.74432-104.63744zM293.41184 419.7632l-39.808 43.63264 442.77248 275.63008h39.79264l21.22752-21.82144 21.18656-62.78144s-58.32704 43.6224-61.00992 43.6224c-23.78752-16.32768-42.38336-24.56064-42.38336-24.56064L293.41184 419.7632z" fill="#ffffff" p-id="6269" data-spm-anchor-id="a313x.7781069.0.i7" class="selected"></path></svg>