<svg xmlns="http://www.w3.org/2000/svg" xmlns:xlink="http://www.w3.org/1999/xlink" viewBox="0 0 55.53 28.65"><defs><style>.cls-1{fill:url(#未命名的渐变_10);}.cls-2{fill:none;stroke:#000;stroke-width:0.3px;opacity:0.5;}.cls-3{fill:url(#未命名的渐变_10-2);}.cls-4{fill:url(#未命名的渐变_10-3);}.cls-5{fill:url(#新建渐变色板_1);}.cls-6{fill:#fff;}.cls-7{fill:#3664bf;}.cls-8{opacity:0.2;}</style><linearGradient id="未命名的渐变_10" x1="27.76" y1="5.02" x2="27.76" y2="23.66" gradientUnits="userSpaceOnUse"><stop offset="0.01" stop-color="#4c5b75"/><stop offset="0.03" stop-color="#616f86"/><stop offset="0.1" stop-color="#8e99aa"/><stop offset="0.16" stop-color="#b4bcc7"/><stop offset="0.23" stop-color="#d1d7de"/><stop offset="0.29" stop-color="#e5eaef"/><stop offset="0.36" stop-color="#f2f6f9"/><stop offset="0.42" stop-color="#f6fafc"/><stop offset="0.47" stop-color="#f2f6f8"/><stop offset="0.53" stop-color="#e6e9ec"/><stop offset="0.59" stop-color="#d3d5d7"/><stop offset="0.65" stop-color="#b7b8bb"/><stop offset="0.7" stop-color="#949396"/><stop offset="0.72" stop-color="#89878b"/><stop offset="1" stop-color="#f6fafc"/></linearGradient><linearGradient id="未命名的渐变_10-2" x1="4.4" y1="1.82" x2="4.4" y2="27.76" xlink:href="#未命名的渐变_10"/><linearGradient id="未命名的渐变_10-3" x1="51.13" y1="1.82" x2="51.13" y2="27.76" xlink:href="#未命名的渐变_10"/><linearGradient id="新建渐变色板_1" x1="-140.87" y1="-86.1" x2="-140.87" y2="-57.28" gradientTransform="translate(178.19 -34.58) rotate(-45)" xlink:href="#未命名的渐变_10"/></defs><title>资源 4</title><g id="图层_2" data-name="图层 2"><g id="图层_1-2" data-name="图层 1"><path class="cls-1" d="M35.85,5.16V6.68a7.09,7.09,0,1,1-14.17,0V5.16h-13V23.49H46.87V5.16Z"/><path class="cls-2" d="M35.85,5.16V6.68a7.09,7.09,0,1,1-14.17,0V5.16h-13V23.49H46.87V5.16Z"/><rect class="cls-3" x="0.15" y="2.01" width="8.5" height="25.51"/><rect class="cls-2" x="0.15" y="2.01" width="8.5" height="25.51"/><rect class="cls-4" x="46.88" y="2.01" width="8.5" height="25.51"/><rect class="cls-2" x="46.88" y="2.01" width="8.5" height="25.51"/><circle class="cls-5" cx="27.86" cy="14.32" r="14.17" transform="translate(-1.97 23.9) rotate(-45)"/><circle class="cls-2" cx="27.86" cy="14.32" r="14.17" transform="translate(-1.97 23.9) rotate(-45)"/><circle class="cls-6" cx="27.86" cy="14.32" r="9.92" transform="translate(7.52 38.15) rotate(-76.72)"/><path class="cls-7" d="M27.86,4.9a9.42,9.42,0,1,0,9.42,9.42A9.42,9.42,0,0,0,27.86,4.9Zm6.4,15.82a9,9,0,0,1-12.79,0,9,9,0,0,1-2.65-6.4A9,9,0,0,1,31.38,6a8.92,8.92,0,0,1,2.88,1.94A9.15,9.15,0,0,1,36.2,10.8a9,9,0,0,1-1.94,9.92Z"/><path class="cls-7" d="M25,12.93c.41,0,.57-.34.57-.71s-.16-.71-.57-.71-.54.34-.54.71S24.62,12.93,25,12.93Zm0-1.15c.23,0,.23.26.23.44s0,.44-.23.44-.22-.26-.22-.44,0-.44.22-.44Zm1.88,1.15c.4,0,.56-.34.56-.71s-.16-.71-.56-.71-.55.34-.55.71S26.5,12.93,26.9,12.93Zm0-1.15c.22,0,.23.26.23.44s0,.44-.23.44-.23-.26-.23-.44,0-.44.23-.44Zm1.87,1.15c.41,0,.57-.34.57-.71s-.16-.71-.57-.71-.54.34-.54.71S28.39,12.93,28.78,12.93Zm0-1.15c.22,0,.23.26.23.44s0,.44-.23.44-.23-.26-.23-.44,0-.44.23-.44Zm1.87,1.15c.41,0,.57-.34.57-.71s-.16-.71-.57-.71-.54.34-.54.71S30.27,12.93,30.66,12.93Zm0-1.15c.23,0,.23.26.23.44s0,.44-.23.44-.22-.26-.22-.44,0-.44.22-.44Z"/><path class="cls-7" d="M27.85,7.3a7,7,0,1,0,7,7A7,7,0,0,0,27.85,7.3ZM24,11.78a.69.69,0,0,1,.71-.68h6.63a.71.71,0,0,1,.71.71v1a.71.71,0,0,1-.71.72H24.73a.71.71,0,0,1-.71-.72V11.78Zm.57,6.5a1.77,1.77,0,1,1,1.76-1.76,1.76,1.76,0,0,1-1.76,1.76Zm3.65,2.26A1.77,1.77,0,1,1,30,18.78,1.76,1.76,0,0,1,28.24,20.54Zm3.49-2.26a1.77,1.77,0,1,1,1.77-1.76A1.76,1.76,0,0,1,31.73,18.28Z"/><path class="cls-7" d="M24.76,16.46l-.22-1-.22,1A.61.61,0,0,0,24,17a.59.59,0,0,0,1.18,0,.59.59,0,0,0-.37-.55Zm7.28,0-.22-1-.22,1a.59.59,0,1,0,.8.55.6.6,0,0,0-.36-.55Zm-3.58,2.32-.22-1-.22,1a.59.59,0,1,0,.8.55.6.6,0,0,0-.36-.55Z"/><g class="cls-8"><path class="cls-7" d="M35.85,5.16V6.68a7.09,7.09,0,1,1-14.17,0V5.16h-13V23.49H46.87V5.16Z"/><path class="cls-7" d="M35.85,5.16V6.68a7.09,7.09,0,1,1-14.17,0V5.16h-13V23.49H46.87V5.16Z"/><rect class="cls-7" x="0.15" y="2.01" width="8.5" height="25.51"/><rect class="cls-7" x="0.15" y="2.01" width="8.5" height="25.51"/><rect class="cls-7" x="46.88" y="2.01" width="8.5" height="25.51"/><rect class="cls-7" x="46.88" y="2.01" width="8.5" height="25.51"/><circle class="cls-7" cx="27.86" cy="14.32" r="14.17" transform="translate(-1.97 23.9) rotate(-45)"/><circle class="cls-7" cx="27.86" cy="14.32" r="14.17" transform="translate(-1.97 23.9) rotate(-45)"/><circle class="cls-7" cx="27.86" cy="14.32" r="9.92" transform="translate(7.52 38.15) rotate(-76.72)"/><path class="cls-7" d="M27.86,4.9a9.42,9.42,0,1,0,9.42,9.42A9.42,9.42,0,0,0,27.86,4.9Zm6.4,15.82a9,9,0,0,1-12.79,0,9,9,0,0,1-2.65-6.4A9,9,0,0,1,31.38,6a8.92,8.92,0,0,1,2.88,1.94A9.15,9.15,0,0,1,36.2,10.8a9,9,0,0,1-1.94,9.92Z"/><path class="cls-7" d="M25,12.93c.41,0,.57-.34.57-.71s-.16-.71-.57-.71-.54.34-.54.71S24.62,12.93,25,12.93Zm0-1.15c.23,0,.23.26.23.44s0,.44-.23.44-.22-.26-.22-.44,0-.44.22-.44Zm1.88,1.15c.4,0,.56-.34.56-.71s-.16-.71-.56-.71-.55.34-.55.71S26.5,12.93,26.9,12.93Zm0-1.15c.22,0,.23.26.23.44s0,.44-.23.44-.23-.26-.23-.44,0-.44.23-.44Zm1.87,1.15c.41,0,.57-.34.57-.71s-.16-.71-.57-.71-.54.34-.54.71S28.39,12.93,28.78,12.93Zm0-1.15c.22,0,.23.26.23.44s0,.44-.23.44-.23-.26-.23-.44,0-.44.23-.44Zm1.87,1.15c.41,0,.57-.34.57-.71s-.16-.71-.57-.71-.54.34-.54.71S30.27,12.93,30.66,12.93Zm0-1.15c.23,0,.23.26.23.44s0,.44-.23.44-.22-.26-.22-.44,0-.44.22-.44Z"/><path class="cls-7" d="M27.85,7.3a7,7,0,1,0,7,7A7,7,0,0,0,27.85,7.3ZM24,11.78a.69.69,0,0,1,.71-.68h6.63a.71.71,0,0,1,.71.71v1a.71.71,0,0,1-.71.72H24.73a.71.71,0,0,1-.71-.72V11.78Zm.57,6.5a1.77,1.77,0,1,1,1.76-1.76,1.76,1.76,0,0,1-1.76,1.76Zm3.65,2.26A1.77,1.77,0,1,1,30,18.78,1.76,1.76,0,0,1,28.24,20.54Zm3.49-2.26a1.77,1.77,0,1,1,1.77-1.76A1.76,1.76,0,0,1,31.73,18.28Z"/><path class="cls-7" d="M24.76,16.46l-.22-1-.22,1A.61.61,0,0,0,24,17a.59.59,0,0,0,1.18,0,.59.59,0,0,0-.37-.55Zm7.28,0-.22-1-.22,1a.59.59,0,1,0,.8.55.6.6,0,0,0-.36-.55Zm-3.58,2.32-.22-1-.22,1a.59.59,0,1,0,.8.55.6.6,0,0,0-.36-.55Z"/></g></g></g></svg>