<svg xmlns="http://www.w3.org/2000/svg" xmlns:xlink="http://www.w3.org/1999/xlink" viewBox="0 0 8.73 40.69"><defs><style>.cls-1{fill:url(#新建渐变色板_1);}.cls-11,.cls-2{fill:none;stroke:#000;}.cls-2{stroke-miterlimit:10;stroke-width:0.15px;opacity:0.5;}.cls-3{fill:url(#新建渐变色板_1-2);}.cls-4{fill:url(#新建渐变色板_1-3);}.cls-10,.cls-5{fill:#fff;}.cls-6,.cls-7{fill:red;}.cls-10,.cls-7{stroke:red;}.cls-10,.cls-11,.cls-7{stroke-width:0.1px;}.cls-8{opacity:0.2;}.cls-9{fill:#3664bf;}</style><linearGradient id="新建渐变色板_1" x1="2.7" y1="36.58" x2="6.03" y2="36.58" gradientUnits="userSpaceOnUse"><stop offset="0.01" stop-color="#4c5b75"/><stop offset="0.03" stop-color="#616f86"/><stop offset="0.1" stop-color="#8e99aa"/><stop offset="0.16" stop-color="#b4bcc7"/><stop offset="0.23" stop-color="#d1d7de"/><stop offset="0.29" stop-color="#e5eaef"/><stop offset="0.36" stop-color="#f2f6f9"/><stop offset="0.42" stop-color="#f6fafc"/><stop offset="0.47" stop-color="#f2f6f8"/><stop offset="0.53" stop-color="#e6e9ec"/><stop offset="0.59" stop-color="#d3d5d7"/><stop offset="0.65" stop-color="#b7b8bb"/><stop offset="0.7" stop-color="#949396"/><stop offset="0.72" stop-color="#89878b"/><stop offset="1" stop-color="#f6fafc"/></linearGradient><linearGradient id="新建渐变色板_1-2" x1="1.47" y1="30.85" x2="7.26" y2="30.85" xlink:href="#新建渐变色板_1"/><linearGradient id="新建渐变色板_1-3" x1="0.07" y1="14.61" x2="8.65" y2="14.61" xlink:href="#新建渐变色板_1"/></defs><title>资源 5</title><g id="图层_2" data-name="图层 2"><g id="图层_1-2" data-name="图层 1"><path class="cls-1" d="M4.36,40.62h0A1.66,1.66,0,0,1,2.7,39V32.54H6V39A1.67,1.67,0,0,1,4.36,40.62Z"/><path class="cls-2" d="M4.36,40.62h0A1.66,1.66,0,0,1,2.7,39V32.54H6V39A1.67,1.67,0,0,1,4.36,40.62Z"/><rect class="cls-3" x="1.47" y="29.15" width="5.79" height="3.39"/><rect class="cls-2" x="1.47" y="29.15" width="5.79" height="3.39"/><rect class="cls-4" x="0.07" y="0.07" width="8.58" height="29.08" rx="2.12" ry="2.12"/><rect class="cls-2" x="0.07" y="0.07" width="8.58" height="29.08" rx="2.12" ry="2.12"/><rect class="cls-5" x="1.21" y="2.9" width="5.79" height="23.26" rx="2.12" ry="2.12"/><rect class="cls-6" x="2.68" y="22.62" width="2.54" height="2.54" rx="1.27" ry="1.27"/><rect class="cls-7" x="3.24" y="3.89" width="1.42" height="19.55" rx="0.71" ry="0.71"/><g class="cls-8"><path class="cls-9" d="M4.36,40.62h0A1.66,1.66,0,0,1,2.7,39V32.54H6V39A1.67,1.67,0,0,1,4.36,40.62Z"/><path class="cls-9" d="M4.36,40.62h0A1.66,1.66,0,0,1,2.7,39V32.54H6V39A1.67,1.67,0,0,1,4.36,40.62Z"/><rect class="cls-9" x="1.47" y="29.15" width="5.79" height="3.39"/><rect class="cls-9" x="1.47" y="29.15" width="5.79" height="3.39"/><rect class="cls-9" x="0.07" y="0.07" width="8.58" height="29.08" rx="2.12" ry="2.12"/><rect class="cls-9" x="0.07" y="0.07" width="8.58" height="29.08" rx="2.12" ry="2.12"/><rect class="cls-9" x="1.21" y="2.9" width="5.79" height="23.26" rx="2.12" ry="2.12"/><rect class="cls-9" x="2.68" y="22.62" width="2.54" height="2.54" rx="1.27" ry="1.27"/><rect class="cls-9" x="3.24" y="3.89" width="1.42" height="19.55" rx="0.71" ry="0.71"/></g><path class="cls-10" d="M4,3.89H4a.71.71,0,0,1,.71.71v8.5a0,0,0,0,1,0,0H3.24a0,0,0,0,1,0,0V4.6A.71.71,0,0,1,4,3.89Z"/><line class="cls-11" x1="4.76" y1="4.6" x2="6.18" y2="4.6"/><line class="cls-11" x1="4.76" y1="22.73" x2="6.18" y2="22.73"/><line class="cls-11" x1="5.47" y1="13.66" x2="4.9" y2="13.66"/></g></g></svg>